<svg xmlns="http://www.w3.org/2000/svg" xmlns:xlink="http://www.w3.org/1999/xlink" width="1080" zoomAndPan="magnify" viewBox="0 0 810 809.999993" height="1080" preserveAspectRatio="xMidYMid meet" version="1.0"><defs><g/><clipPath id="85b2eb7964"><path d="M 77.394531 261 L 334 261 L 334 634 L 77.394531 634 Z M 77.394531 261 " clip-rule="nonzero"/></clipPath><clipPath id="443af85d37"><path d="M 469 261 L 725.394531 261 L 725.394531 634 L 469 634 Z M 469 261 " clip-rule="nonzero"/></clipPath><clipPath id="77b90a257a"><path d="M 485 185 L 568 185 L 568 298 L 485 298 Z M 485 185 " clip-rule="nonzero"/></clipPath><clipPath id="c7a64d2c90"><path d="M 483.011719 203.546875 L 557.953125 184.800781 L 581.613281 279.386719 L 506.671875 298.132812 Z M 483.011719 203.546875 " clip-rule="nonzero"/></clipPath><clipPath id="a3f87b4648"><path d="M 483.011719 203.546875 L 557.953125 184.800781 L 581.613281 279.386719 L 506.671875 298.132812 Z M 483.011719 203.546875 " clip-rule="nonzero"/></clipPath><clipPath id="9a8690c8e5"><path d="M 483.011719 203.546875 L 557.953125 184.800781 L 581.613281 279.386719 L 506.671875 298.132812 Z M 483.011719 203.546875 " clip-rule="nonzero"/></clipPath></defs><rect x="-81" width="972" fill="#ffffff" y="-80.999999" height="971.999992" fill-opacity="1"/><rect x="-81" width="972" fill="#ffffff" y="-80.999999" height="971.999992" fill-opacity="1"/><path fill="#000000" d="M 160.929688 557.542969 C 180.171875 558.695312 215.996094 562.320312 256.675781 573.53125 C 297.363281 584.738281 342.851562 603.539062 381.621094 634.773438 C 383.789062 636.515625 386.75 636.859375 389.257812 635.660156 C 391.765625 634.457031 393.355469 631.9375 393.355469 629.15625 L 393.355469 251.910156 C 393.355469 249.648438 392.292969 247.519531 390.484375 246.15625 C 380.011719 238.257812 354.898438 221.054688 316.332031 205.300781 C 277.769531 189.550781 225.742188 175.261719 161.585938 173.25 C 159.636719 173.191406 157.746094 173.921875 156.34375 175.28125 C 154.941406 176.640625 154.152344 178.503906 154.152344 180.457031 L 154.152344 550.34375 C 154.152344 554.148438 157.128906 557.3125 160.929688 557.539062 Z M 378.933594 255.550781 L 378.933594 614.632812 C 340.90625 587.085938 298.535156 570.117188 260.507812 559.632812 C 222.878906 549.265625 189.480469 545.210938 168.570312 543.613281 L 168.570312 187.988281 C 227.390625 190.765625 275.183594 204.074219 310.878906 218.652344 C 344.820312 232.511719 367.828125 247.496094 378.933594 255.546875 Z M 378.933594 255.550781 " fill-opacity="1" fill-rule="nonzero"/><path fill="#000000" d="M 413.53125 635.640625 C 416.039062 636.839844 419 636.496094 421.164062 634.753906 C 459.933594 603.519531 505.421875 584.726562 546.109375 573.523438 C 586.789062 562.316406 622.613281 558.695312 641.859375 557.542969 C 645.660156 557.316406 648.636719 554.152344 648.636719 550.347656 L 648.636719 180.457031 C 648.636719 178.503906 647.847656 176.640625 646.445312 175.28125 C 645.042969 173.921875 643.15625 173.191406 641.203125 173.25 C 576.773438 175.25 524.710938 189.527344 486.199219 205.273438 C 447.683594 221.019531 422.703125 238.226562 412.28125 246.140625 C 410.480469 247.511719 409.433594 249.617188 409.433594 251.882812 L 409.433594 629.136719 C 409.433594 631.917969 411.023438 634.441406 413.53125 635.640625 Z M 491.65625 218.621094 C 527.300781 204.050781 575.132812 190.75 634.214844 187.984375 L 634.214844 543.613281 C 613.308594 545.207031 579.90625 549.257812 542.28125 559.621094 C 504.25 570.101562 461.882812 587.0625 423.851562 614.613281 L 423.851562 255.503906 C 434.886719 247.453125 457.769531 232.472656 491.65625 218.621094 Z M 491.65625 218.621094 " fill-opacity="1" fill-rule="nonzero"/><g clip-path="url(#85b2eb7964)"><path fill="#000000" d="M 324.742188 633.285156 C 328.261719 634.101562 331.835938 632.195312 333.113281 628.816406 C 334.394531 625.4375 332.980469 621.640625 329.804688 619.921875 C 287.058594 596.792969 241.578125 585.160156 206.570312 579.21875 C 189.066406 576.253906 174.179688 574.722656 163.558594 573.929688 C 158.25 573.53125 154.007812 573.320312 151.035156 573.207031 C 149.550781 573.152344 148.382812 573.121094 147.5625 573.101562 C 147.148438 573.09375 146.824219 573.089844 146.585938 573.085938 C 146.339844 573.082031 146.214844 573.082031 146.109375 573.082031 L 138.070312 573.082031 L 138.070312 269.1875 C 138.070312 265.445312 135.210938 262.328125 131.484375 262.003906 C 125.839844 261.515625 119.8125 261.324219 113.753906 261.324219 C 103.234375 261.324219 92.632812 261.902344 84.011719 262.597656 C 80.261719 262.898438 77.382812 266.019531 77.382812 269.785156 L 77.382812 609.980469 C 77.382812 612.042969 78.261719 614 79.800781 615.367188 C 81.339844 616.738281 83.386719 617.382812 85.429688 617.144531 C 109.230469 614.355469 132.722656 613.160156 155.515625 613.160156 C 220.769531 613.15625 280.277344 622.980469 324.742188 633.285156 Z M 123.652344 275.957031 L 123.652344 580.292969 C 123.652344 582.191406 124.417969 584.046875 125.761719 585.390625 C 127.105469 586.734375 128.960938 587.503906 130.859375 587.503906 L 146.113281 587.503906 C 146.585938 587.503906 152.863281 587.570312 163.210938 588.363281 C 178.746094 589.554688 203.523438 592.378906 231.992188 599.039062 C 240.773438 601.089844 249.910156 603.511719 259.230469 606.355469 C 227.589844 601.824219 192.503906 598.742188 155.515625 598.742188 C 134.785156 598.742188 113.453125 599.71875 91.800781 601.945312 L 91.800781 276.492188 C 98.652344 276.054688 106.285156 275.742188 113.75 275.742188 C 117.121094 275.742188 120.441406 275.816406 123.648438 275.957031 Z M 123.652344 275.957031 " fill-opacity="1" fill-rule="nonzero"/></g><g clip-path="url(#443af85d37)"><path fill="#000000" d="M 718.773438 262.597656 C 710.152344 261.902344 699.542969 261.324219 689.019531 261.320312 C 682.964844 261.320312 676.941406 261.511719 671.304688 262 C 667.578125 262.324219 664.71875 265.441406 664.71875 269.183594 L 664.71875 573.070312 L 656.6875 573.082031 L 656.695312 573.082031 C 656.585938 573.082031 656.460938 573.082031 656.214844 573.085938 C 652.527344 573.136719 627.367188 573.714844 592.78125 579.824219 C 558.195312 585.945312 514.179688 597.566406 472.789062 619.957031 C 469.613281 621.675781 468.199219 625.476562 469.476562 628.851562 C 470.757812 632.230469 474.332031 634.140625 477.851562 633.324219 C 522.320312 623.003906 581.878906 613.15625 647.238281 613.160156 C 670.039062 613.160156 693.542969 614.355469 717.355469 617.140625 C 719.402344 617.378906 721.445312 616.734375 722.988281 615.367188 C 724.527344 613.996094 725.402344 612.039062 725.402344 609.980469 L 725.402344 269.78125 C 725.402344 266.019531 722.523438 262.898438 718.773438 262.597656 Z M 543.613281 606.339844 C 563.25 600.367188 582.0625 596.253906 598.507812 593.46875 C 615.519531 590.585938 630 589.089844 640.269531 588.320312 C 645.40625 587.933594 649.488281 587.730469 652.300781 587.621094 C 653.707031 587.566406 654.800781 587.539062 655.550781 587.519531 C 655.925781 587.511719 656.214844 587.507812 656.410156 587.503906 L 656.695312 587.503906 C 656.695312 587.503906 656.699219 587.503906 656.699219 587.503906 L 656.707031 587.503906 L 671.9375 587.480469 C 675.917969 587.476562 679.136719 584.253906 679.136719 580.273438 L 679.136719 275.957031 C 682.339844 275.816406 685.65625 275.742188 689.019531 275.742188 C 696.492188 275.742188 704.132812 276.054688 710.984375 276.492188 L 710.984375 601.945312 C 689.320312 599.71875 667.976562 598.742188 647.238281 598.742188 C 610.277344 598.742188 575.226562 601.820312 543.613281 606.34375 Z M 543.613281 606.339844 " fill-opacity="1" fill-rule="nonzero"/></g><g fill="#fefefe" fill-opacity="1"><g transform="translate(75.700788, 515.939584)"><g><path d="M 239.1875 -199.5 C 239.1875 -182.601562 235.203125 -166.316406 227.234375 -150.640625 C 219.273438 -134.960938 208.804688 -121.179688 195.828125 -109.296875 C 182.847656 -97.421875 168.210938 -87.929688 151.921875 -80.828125 C 135.628906 -73.722656 119.28125 -70.171875 102.875 -70.171875 C 98.46875 -70.171875 94.671875 -70.84375 91.484375 -72.1875 C 88.296875 -73.539062 85.476562 -75.378906 83.03125 -77.703125 C 80.582031 -80.035156 78.316406 -82.789062 76.234375 -85.96875 C 74.148438 -89.15625 72.128906 -92.460938 70.171875 -95.890625 C 67.972656 -92.953125 65.097656 -87.257812 61.546875 -78.8125 C 57.992188 -70.363281 54.070312 -60.6875 49.78125 -49.78125 C 45.5 -38.882812 41.09375 -27.554688 36.5625 -15.796875 C 32.03125 -4.035156 27.742188 6.800781 23.703125 16.71875 C 19.660156 26.632812 16.046875 34.773438 12.859375 41.140625 C 9.671875 47.515625 7.34375 50.703125 5.875 50.703125 C 4.40625 50.703125 2.566406 50.148438 0.359375 49.046875 C -1.835938 47.941406 -3.851562 46.53125 -5.6875 44.8125 C -7.53125 43.101562 -9.125 41.269531 -10.46875 39.3125 C -11.8125 37.351562 -12.484375 35.515625 -12.484375 33.796875 C -12.484375 31.597656 -10.953125 26.332031 -7.890625 18 C -4.835938 9.675781 -0.800781 -0.609375 4.21875 -12.859375 C 9.238281 -25.109375 14.875 -38.703125 21.125 -53.640625 C 27.375 -68.578125 33.863281 -83.757812 40.59375 -99.1875 C 47.332031 -114.625 53.882812 -129.691406 60.25 -144.390625 C 66.625 -159.085938 72.320312 -172.3125 77.34375 -184.0625 C 82.363281 -195.820312 86.40625 -205.4375 89.46875 -212.90625 C 92.53125 -220.382812 94.0625 -224.613281 94.0625 -225.59375 C 86.957031 -222.15625 80.523438 -218.597656 74.765625 -214.921875 C 69.015625 -211.253906 63.6875 -207.273438 58.78125 -202.984375 C 53.882812 -198.703125 49.414062 -193.863281 45.375 -188.46875 C 41.332031 -183.082031 37.351562 -176.960938 33.4375 -170.109375 C 32.945312 -169.617188 32.332031 -168.820312 31.59375 -167.71875 C 30.863281 -166.613281 30.007812 -166.0625 29.03125 -166.0625 C 27.0625 -166.0625 25.28125 -166.859375 23.6875 -168.453125 C 22.101562 -170.046875 20.695312 -171.941406 19.46875 -174.140625 C 18.25 -176.347656 17.269531 -178.613281 16.53125 -180.9375 C 15.800781 -183.269531 15.4375 -185.171875 15.4375 -186.640625 C 15.4375 -191.535156 17.148438 -196.3125 20.578125 -200.96875 C 27.429688 -210.519531 36.488281 -219.644531 47.75 -228.34375 C 59.019531 -237.039062 71.144531 -244.632812 84.125 -251.125 C 97.113281 -257.613281 110.40625 -262.816406 124 -266.734375 C 137.59375 -270.648438 150.269531 -272.609375 162.03125 -272.609375 C 171.582031 -272.609375 181.007812 -270.707031 190.3125 -266.90625 C 199.625 -263.113281 207.890625 -257.910156 215.109375 -251.296875 C 222.335938 -244.691406 228.15625 -236.976562 232.5625 -228.15625 C 236.976562 -219.34375 239.1875 -209.789062 239.1875 -199.5 Z M 164.234375 -248.734375 C 161.046875 -248.734375 157.613281 -248.488281 153.9375 -248 C 150.269531 -247.507812 146.71875 -246.710938 143.28125 -245.609375 C 139.851562 -244.503906 136.789062 -242.847656 134.09375 -240.640625 C 131.40625 -238.441406 129.445312 -235.75 128.21875 -232.5625 C 127.238281 -230.113281 125.34375 -225.457031 122.53125 -218.59375 C 119.71875 -211.738281 116.410156 -203.898438 112.609375 -195.078125 C 108.816406 -186.265625 104.835938 -176.957031 100.671875 -167.15625 C 96.503906 -157.363281 92.707031 -148.300781 89.28125 -139.96875 C 85.851562 -131.644531 82.972656 -124.726562 80.640625 -119.21875 C 78.316406 -113.707031 77.15625 -110.707031 77.15625 -110.21875 C 77.15625 -108.257812 77.519531 -106.054688 78.25 -103.609375 C 78.988281 -101.160156 80.09375 -98.957031 81.5625 -97 C 83.03125 -95.039062 84.742188 -93.382812 86.703125 -92.03125 C 88.660156 -90.6875 90.742188 -90.015625 92.953125 -90.015625 C 101.285156 -90.015625 110.285156 -91.546875 119.953125 -94.609375 C 129.628906 -97.671875 139.304688 -101.957031 148.984375 -107.46875 C 158.660156 -112.976562 168.03125 -119.34375 177.09375 -126.5625 C 186.15625 -133.789062 194.175781 -141.566406 201.15625 -149.890625 C 208.132812 -158.222656 213.707031 -166.859375 217.875 -175.796875 C 222.039062 -184.742188 224.125 -193.625 224.125 -202.4375 C 224.125 -211.257812 222.40625 -218.671875 218.96875 -224.671875 C 215.539062 -230.671875 211.070312 -235.445312 205.5625 -239 C 200.050781 -242.550781 193.679688 -245.0625 186.453125 -246.53125 C 179.234375 -248 171.828125 -248.734375 164.234375 -248.734375 Z M 164.234375 -248.734375 "/></g></g></g><g fill="#fefefe" fill-opacity="1"><g transform="translate(261.977221, 515.939584)"><g><path d="M 24.609375 3.3125 C 19.472656 3.0625 15.1875 1.773438 11.75 -0.546875 C 8.320312 -2.878906 5.691406 -5.820312 3.859375 -9.375 C 2.023438 -12.925781 0.800781 -16.78125 0.1875 -20.9375 C -0.425781 -25.101562 -0.488281 -29.269531 0 -33.4375 C 0.738281 -40.539062 3.003906 -48.5625 6.796875 -57.5 C 10.585938 -66.4375 15.238281 -74.820312 20.75 -82.65625 C 26.269531 -90.5 32.332031 -97.113281 38.9375 -102.5 C 45.550781 -107.894531 52.164062 -110.59375 58.78125 -110.59375 C 64.90625 -110.59375 70.050781 -108.019531 74.21875 -102.875 C 78.382812 -97.726562 80.46875 -92.21875 80.46875 -86.34375 C 80.46875 -81.195312 78.445312 -75.4375 74.40625 -69.0625 C 70.363281 -62.695312 65.582031 -56.820312 60.0625 -51.4375 C 54.550781 -46.050781 48.859375 -41.519531 42.984375 -37.84375 C 37.109375 -34.164062 32.332031 -32.328125 28.65625 -32.328125 C 27.4375 -32.328125 26.273438 -32.632812 25.171875 -33.25 C 24.066406 -33.863281 23.023438 -34.414062 22.046875 -34.90625 C 20.578125 -33.675781 19.597656 -31.894531 19.109375 -29.5625 C 18.617188 -27.238281 18.554688 -24.914062 18.921875 -22.59375 C 19.285156 -20.269531 20.078125 -18.25 21.296875 -16.53125 C 22.523438 -14.820312 24.367188 -13.96875 26.828125 -13.96875 C 31.234375 -13.96875 36.554688 -15.25 42.796875 -17.8125 C 49.046875 -20.382812 55.84375 -23.753906 63.1875 -27.921875 C 70.539062 -32.085938 78.132812 -36.738281 85.96875 -41.875 C 93.8125 -47.019531 101.285156 -52.164062 108.390625 -57.3125 C 115.492188 -62.457031 122.046875 -67.359375 128.046875 -72.015625 C 134.046875 -76.671875 138.878906 -80.585938 142.546875 -83.765625 L 145.859375 -84.5 L 145.859375 -84.140625 L 146.96875 -82.296875 L 146.96875 -81.9375 C 142.800781 -77.519531 137.65625 -72.375 131.53125 -66.5 C 125.40625 -60.625 118.789062 -54.5 111.6875 -48.125 C 104.582031 -41.757812 97.171875 -35.453125 89.453125 -29.203125 C 81.742188 -22.960938 74.09375 -17.390625 66.5 -12.484375 C 58.90625 -7.585938 51.492188 -3.671875 44.265625 -0.734375 C 37.046875 2.203125 30.492188 3.550781 24.609375 3.3125 Z M 37.109375 -60.25 C 42.003906 -62.945312 46.472656 -66.128906 50.515625 -69.796875 C 54.554688 -73.472656 57.925781 -77.882812 60.625 -83.03125 L 60.625 -84.875 C 58.664062 -83.894531 56.519531 -82.421875 54.1875 -80.453125 C 51.863281 -78.492188 49.476562 -76.289062 47.03125 -73.84375 C 44.582031 -71.394531 42.375 -68.945312 40.40625 -66.5 C 38.445312 -64.050781 36.976562 -61.96875 36 -60.25 Z M 37.109375 -60.25 "/></g></g></g><g fill="#fefefe" fill-opacity="1"><g transform="translate(380.650478, 515.939584)"><g><path d="M 2.9375 -26.078125 C 2.9375 -38.816406 5.9375 -51.367188 11.9375 -63.734375 C 17.9375 -76.109375 25.648438 -87.5 35.078125 -97.90625 C 44.515625 -108.320312 55.109375 -117.382812 66.859375 -125.09375 C 78.617188 -132.8125 90.253906 -138.507812 101.765625 -142.1875 C 103.972656 -142.1875 106.789062 -141.878906 110.21875 -141.265625 C 113.644531 -140.648438 116.953125 -139.726562 120.140625 -138.5 C 123.328125 -137.28125 126.082031 -135.691406 128.40625 -133.734375 C 130.738281 -131.773438 131.90625 -129.203125 131.90625 -126.015625 C 131.90625 -124.304688 130.492188 -121.304688 127.671875 -117.015625 C 124.859375 -112.734375 121.613281 -108.382812 117.9375 -103.96875 C 114.257812 -99.5625 110.644531 -95.644531 107.09375 -92.21875 C 103.539062 -88.789062 100.910156 -87.078125 99.203125 -87.078125 C 95.773438 -87.078125 93.265625 -88.726562 91.671875 -92.03125 C 90.078125 -95.34375 89.28125 -98.34375 89.28125 -101.03125 C 89.28125 -102.257812 89.335938 -103.546875 89.453125 -104.890625 C 89.578125 -106.242188 89.765625 -107.53125 90.015625 -108.75 C 81.191406 -103.601562 73.226562 -98.335938 66.125 -92.953125 C 59.03125 -87.566406 52.722656 -81.75 47.203125 -75.5 C 41.691406 -69.257812 36.734375 -62.28125 32.328125 -54.5625 C 27.921875 -46.84375 23.878906 -38.207031 20.203125 -28.65625 C 19.710938 -27.4375 19.097656 -26.085938 18.359375 -24.609375 C 17.628906 -23.140625 17.265625 -21.671875 17.265625 -20.203125 C 17.265625 -18.734375 17.875 -17.507812 19.09375 -16.53125 C 20.320312 -15.550781 21.671875 -15.0625 23.140625 -15.0625 C 27.304688 -15.0625 33.25 -16.46875 40.96875 -19.28125 C 48.6875 -22.101562 57.320312 -25.78125 66.875 -30.3125 C 76.425781 -34.84375 86.40625 -39.863281 96.8125 -45.375 C 107.21875 -50.882812 117.257812 -56.332031 126.9375 -61.71875 C 136.613281 -67.113281 145.429688 -72.195312 153.390625 -76.96875 C 161.347656 -81.75 167.535156 -85.609375 171.953125 -88.546875 L 174.890625 -85.234375 C 172.191406 -82.546875 166.921875 -78.628906 159.078125 -73.484375 C 151.242188 -68.335938 142.179688 -62.640625 131.890625 -56.390625 C 121.609375 -50.148438 110.710938 -43.84375 99.203125 -37.46875 C 87.691406 -31.101562 76.789062 -25.285156 66.5 -20.015625 C 56.207031 -14.753906 47.203125 -10.410156 39.484375 -6.984375 C 31.773438 -3.554688 26.570312 -1.84375 23.875 -1.84375 C 20.9375 -1.84375 18.179688 -2.578125 15.609375 -4.046875 C 13.035156 -5.515625 10.832031 -7.410156 9 -9.734375 C 7.164062 -12.066406 5.695312 -14.703125 4.59375 -17.640625 C 3.488281 -20.578125 2.9375 -23.390625 2.9375 -26.078125 Z M 2.9375 -26.078125 "/></g></g></g><g fill="#fefefe" fill-opacity="1"><g transform="translate(526.512016, 515.939584)"><g><path d="M 25.71875 -18.375 C 27.1875 -18.863281 30.1875 -20.515625 34.71875 -23.328125 C 39.25 -26.148438 44.578125 -29.582031 50.703125 -33.625 C 56.828125 -37.664062 63.316406 -42.007812 70.171875 -46.65625 C 77.035156 -51.3125 83.40625 -55.535156 89.28125 -59.328125 C 95.15625 -63.128906 100.113281 -66.316406 104.15625 -68.890625 C 108.195312 -71.460938 110.585938 -72.75 111.328125 -72.75 C 112.546875 -72.75 113.644531 -72.867188 114.625 -73.109375 C 115.601562 -73.359375 116.335938 -72.992188 116.828125 -72.015625 C 116.335938 -70.785156 113.582031 -68.085938 108.5625 -63.921875 C 103.539062 -59.765625 97.414062 -54.929688 90.1875 -49.421875 C 82.96875 -43.910156 75.191406 -38.09375 66.859375 -31.96875 C 58.535156 -25.84375 50.695312 -20.207031 43.34375 -15.0625 C 36 -9.914062 29.691406 -5.6875 24.421875 -2.375 C 19.160156 0.925781 16.164062 2.578125 15.4375 2.578125 C 13.226562 2.578125 11.144531 1.960938 9.1875 0.734375 C 7.226562 -0.492188 5.515625 -2.085938 4.046875 -4.046875 C 2.578125 -6.003906 1.410156 -8.144531 0.546875 -10.46875 C -0.304688 -12.800781 -0.734375 -15.066406 -0.734375 -17.265625 C -0.734375 -21.429688 0.304688 -27.003906 2.390625 -33.984375 C 4.472656 -40.960938 6.984375 -48.1875 9.921875 -55.65625 C 12.859375 -63.132812 15.859375 -70.300781 18.921875 -77.15625 C 21.984375 -84.007812 24.492188 -89.519531 26.453125 -93.6875 C 27.191406 -95.15625 28.785156 -98.460938 31.234375 -103.609375 C 33.679688 -108.753906 36.3125 -114.140625 39.125 -119.765625 C 41.945312 -125.398438 44.640625 -130.421875 47.203125 -134.828125 C 49.773438 -139.242188 51.554688 -141.453125 52.546875 -141.453125 C 56.703125 -141.453125 60.617188 -140.039062 64.296875 -137.21875 C 67.972656 -134.40625 70.421875 -131.039062 71.640625 -127.125 C 70.421875 -124.914062 68.398438 -120.992188 65.578125 -115.359375 C 62.765625 -109.734375 59.703125 -103.179688 56.390625 -95.703125 C 53.085938 -88.234375 49.597656 -80.332031 45.921875 -72 C 42.253906 -63.675781 38.890625 -55.835938 35.828125 -48.484375 C 32.765625 -41.140625 30.3125 -34.710938 28.46875 -29.203125 C 26.632812 -23.691406 25.71875 -20.082031 25.71875 -18.375 Z M 84.875 -196.9375 C 85.851562 -196.9375 87.441406 -196.628906 89.640625 -196.015625 C 91.847656 -195.398438 94.050781 -194.601562 96.25 -193.625 C 98.457031 -192.644531 100.359375 -191.539062 101.953125 -190.3125 C 103.546875 -189.09375 104.34375 -187.75 104.34375 -186.28125 C 104.34375 -184.5625 103.421875 -182.289062 101.578125 -179.46875 C 99.742188 -176.65625 97.601562 -173.898438 95.15625 -171.203125 C 92.707031 -168.515625 90.195312 -166.191406 87.625 -164.234375 C 85.050781 -162.273438 83.03125 -161.296875 81.5625 -161.296875 C 78.863281 -161.296875 75.984375 -162.945312 72.921875 -166.25 C 69.867188 -169.5625 68.34375 -172.5625 68.34375 -175.25 C 68.34375 -175.988281 69.078125 -177.519531 70.546875 -179.84375 C 72.015625 -182.164062 73.664062 -184.613281 75.5 -187.1875 C 77.332031 -189.757812 79.164062 -192.023438 81 -193.984375 C 82.84375 -195.953125 84.132812 -196.9375 84.875 -196.9375 Z M 84.875 -196.9375 "/></g></g></g><g fill="#fefefe" fill-opacity="1"><g transform="translate(615.057651, 515.939584)"><g><path d="M 24.609375 3.3125 C 19.472656 3.0625 15.1875 1.773438 11.75 -0.546875 C 8.320312 -2.878906 5.691406 -5.820312 3.859375 -9.375 C 2.023438 -12.925781 0.800781 -16.78125 0.1875 -20.9375 C -0.425781 -25.101562 -0.488281 -29.269531 0 -33.4375 C 0.738281 -40.539062 3.003906 -48.5625 6.796875 -57.5 C 10.585938 -66.4375 15.238281 -74.820312 20.75 -82.65625 C 26.269531 -90.5 32.332031 -97.113281 38.9375 -102.5 C 45.550781 -107.894531 52.164062 -110.59375 58.78125 -110.59375 C 64.90625 -110.59375 70.050781 -108.019531 74.21875 -102.875 C 78.382812 -97.726562 80.46875 -92.21875 80.46875 -86.34375 C 80.46875 -81.195312 78.445312 -75.4375 74.40625 -69.0625 C 70.363281 -62.695312 65.582031 -56.820312 60.0625 -51.4375 C 54.550781 -46.050781 48.859375 -41.519531 42.984375 -37.84375 C 37.109375 -34.164062 32.332031 -32.328125 28.65625 -32.328125 C 27.4375 -32.328125 26.273438 -32.632812 25.171875 -33.25 C 24.066406 -33.863281 23.023438 -34.414062 22.046875 -34.90625 C 20.578125 -33.675781 19.597656 -31.894531 19.109375 -29.5625 C 18.617188 -27.238281 18.554688 -24.914062 18.921875 -22.59375 C 19.285156 -20.269531 20.078125 -18.25 21.296875 -16.53125 C 22.523438 -14.820312 24.367188 -13.96875 26.828125 -13.96875 C 31.234375 -13.96875 36.554688 -15.25 42.796875 -17.8125 C 49.046875 -20.382812 55.84375 -23.753906 63.1875 -27.921875 C 70.539062 -32.085938 78.132812 -36.738281 85.96875 -41.875 C 93.8125 -47.019531 101.285156 -52.164062 108.390625 -57.3125 C 115.492188 -62.457031 122.046875 -67.359375 128.046875 -72.015625 C 134.046875 -76.671875 138.878906 -80.585938 142.546875 -83.765625 L 145.859375 -84.5 L 145.859375 -84.140625 L 146.96875 -82.296875 L 146.96875 -81.9375 C 142.800781 -77.519531 137.65625 -72.375 131.53125 -66.5 C 125.40625 -60.625 118.789062 -54.5 111.6875 -48.125 C 104.582031 -41.757812 97.171875 -35.453125 89.453125 -29.203125 C 81.742188 -22.960938 74.09375 -17.390625 66.5 -12.484375 C 58.90625 -7.585938 51.492188 -3.671875 44.265625 -0.734375 C 37.046875 2.203125 30.492188 3.550781 24.609375 3.3125 Z M 37.109375 -60.25 C 42.003906 -62.945312 46.472656 -66.128906 50.515625 -69.796875 C 54.554688 -73.472656 57.925781 -77.882812 60.625 -83.03125 L 60.625 -84.875 C 58.664062 -83.894531 56.519531 -82.421875 54.1875 -80.453125 C 51.863281 -78.492188 49.476562 -76.289062 47.03125 -73.84375 C 44.582031 -71.394531 42.375 -68.945312 40.40625 -66.5 C 38.445312 -64.050781 36.976562 -61.96875 36 -60.25 Z M 37.109375 -60.25 "/></g></g></g><g fill="#fefefe" fill-opacity="1"><g transform="translate(79.086686, 518.310404)"><g><path d="M 239.1875 -199.5 C 239.1875 -182.601562 235.203125 -166.316406 227.234375 -150.640625 C 219.273438 -134.960938 208.804688 -121.179688 195.828125 -109.296875 C 182.847656 -97.421875 168.210938 -87.929688 151.921875 -80.828125 C 135.628906 -73.722656 119.28125 -70.171875 102.875 -70.171875 C 98.46875 -70.171875 94.671875 -70.84375 91.484375 -72.1875 C 88.296875 -73.539062 85.476562 -75.378906 83.03125 -77.703125 C 80.582031 -80.035156 78.316406 -82.789062 76.234375 -85.96875 C 74.148438 -89.15625 72.128906 -92.460938 70.171875 -95.890625 C 67.972656 -92.953125 65.097656 -87.257812 61.546875 -78.8125 C 57.992188 -70.363281 54.070312 -60.6875 49.78125 -49.78125 C 45.5 -38.882812 41.09375 -27.554688 36.5625 -15.796875 C 32.03125 -4.035156 27.742188 6.800781 23.703125 16.71875 C 19.660156 26.632812 16.046875 34.773438 12.859375 41.140625 C 9.671875 47.515625 7.34375 50.703125 5.875 50.703125 C 4.40625 50.703125 2.566406 50.148438 0.359375 49.046875 C -1.835938 47.941406 -3.851562 46.53125 -5.6875 44.8125 C -7.53125 43.101562 -9.125 41.269531 -10.46875 39.3125 C -11.8125 37.351562 -12.484375 35.515625 -12.484375 33.796875 C -12.484375 31.597656 -10.953125 26.332031 -7.890625 18 C -4.835938 9.675781 -0.800781 -0.609375 4.21875 -12.859375 C 9.238281 -25.109375 14.875 -38.703125 21.125 -53.640625 C 27.375 -68.578125 33.863281 -83.757812 40.59375 -99.1875 C 47.332031 -114.625 53.882812 -129.691406 60.25 -144.390625 C 66.625 -159.085938 72.320312 -172.3125 77.34375 -184.0625 C 82.363281 -195.820312 86.40625 -205.4375 89.46875 -212.90625 C 92.53125 -220.382812 94.0625 -224.613281 94.0625 -225.59375 C 86.957031 -222.15625 80.523438 -218.597656 74.765625 -214.921875 C 69.015625 -211.253906 63.6875 -207.273438 58.78125 -202.984375 C 53.882812 -198.703125 49.414062 -193.863281 45.375 -188.46875 C 41.332031 -183.082031 37.351562 -176.960938 33.4375 -170.109375 C 32.945312 -169.617188 32.332031 -168.820312 31.59375 -167.71875 C 30.863281 -166.613281 30.007812 -166.0625 29.03125 -166.0625 C 27.0625 -166.0625 25.28125 -166.859375 23.6875 -168.453125 C 22.101562 -170.046875 20.695312 -171.941406 19.46875 -174.140625 C 18.25 -176.347656 17.269531 -178.613281 16.53125 -180.9375 C 15.800781 -183.269531 15.4375 -185.171875 15.4375 -186.640625 C 15.4375 -191.535156 17.148438 -196.3125 20.578125 -200.96875 C 27.429688 -210.519531 36.488281 -219.644531 47.75 -228.34375 C 59.019531 -237.039062 71.144531 -244.632812 84.125 -251.125 C 97.113281 -257.613281 110.40625 -262.816406 124 -266.734375 C 137.59375 -270.648438 150.269531 -272.609375 162.03125 -272.609375 C 171.582031 -272.609375 181.007812 -270.707031 190.3125 -266.90625 C 199.625 -263.113281 207.890625 -257.910156 215.109375 -251.296875 C 222.335938 -244.691406 228.15625 -236.976562 232.5625 -228.15625 C 236.976562 -219.34375 239.1875 -209.789062 239.1875 -199.5 Z M 164.234375 -248.734375 C 161.046875 -248.734375 157.613281 -248.488281 153.9375 -248 C 150.269531 -247.507812 146.71875 -246.710938 143.28125 -245.609375 C 139.851562 -244.503906 136.789062 -242.847656 134.09375 -240.640625 C 131.40625 -238.441406 129.445312 -235.75 128.21875 -232.5625 C 127.238281 -230.113281 125.34375 -225.457031 122.53125 -218.59375 C 119.71875 -211.738281 116.410156 -203.898438 112.609375 -195.078125 C 108.816406 -186.265625 104.835938 -176.957031 100.671875 -167.15625 C 96.503906 -157.363281 92.707031 -148.300781 89.28125 -139.96875 C 85.851562 -131.644531 82.972656 -124.726562 80.640625 -119.21875 C 78.316406 -113.707031 77.15625 -110.707031 77.15625 -110.21875 C 77.15625 -108.257812 77.519531 -106.054688 78.25 -103.609375 C 78.988281 -101.160156 80.09375 -98.957031 81.5625 -97 C 83.03125 -95.039062 84.742188 -93.382812 86.703125 -92.03125 C 88.660156 -90.6875 90.742188 -90.015625 92.953125 -90.015625 C 101.285156 -90.015625 110.285156 -91.546875 119.953125 -94.609375 C 129.628906 -97.671875 139.304688 -101.957031 148.984375 -107.46875 C 158.660156 -112.976562 168.03125 -119.34375 177.09375 -126.5625 C 186.15625 -133.789062 194.175781 -141.566406 201.15625 -149.890625 C 208.132812 -158.222656 213.707031 -166.859375 217.875 -175.796875 C 222.039062 -184.742188 224.125 -193.625 224.125 -202.4375 C 224.125 -211.257812 222.40625 -218.671875 218.96875 -224.671875 C 215.539062 -230.671875 211.070312 -235.445312 205.5625 -239 C 200.050781 -242.550781 193.679688 -245.0625 186.453125 -246.53125 C 179.234375 -248 171.828125 -248.734375 164.234375 -248.734375 Z M 164.234375 -248.734375 "/></g></g></g><g fill="#fefefe" fill-opacity="1"><g transform="translate(265.363119, 518.310404)"><g><path d="M 24.609375 3.3125 C 19.472656 3.0625 15.1875 1.773438 11.75 -0.546875 C 8.320312 -2.878906 5.691406 -5.820312 3.859375 -9.375 C 2.023438 -12.925781 0.800781 -16.78125 0.1875 -20.9375 C -0.425781 -25.101562 -0.488281 -29.269531 0 -33.4375 C 0.738281 -40.539062 3.003906 -48.5625 6.796875 -57.5 C 10.585938 -66.4375 15.238281 -74.820312 20.75 -82.65625 C 26.269531 -90.5 32.332031 -97.113281 38.9375 -102.5 C 45.550781 -107.894531 52.164062 -110.59375 58.78125 -110.59375 C 64.90625 -110.59375 70.050781 -108.019531 74.21875 -102.875 C 78.382812 -97.726562 80.46875 -92.21875 80.46875 -86.34375 C 80.46875 -81.195312 78.445312 -75.4375 74.40625 -69.0625 C 70.363281 -62.695312 65.582031 -56.820312 60.0625 -51.4375 C 54.550781 -46.050781 48.859375 -41.519531 42.984375 -37.84375 C 37.109375 -34.164062 32.332031 -32.328125 28.65625 -32.328125 C 27.4375 -32.328125 26.273438 -32.632812 25.171875 -33.25 C 24.066406 -33.863281 23.023438 -34.414062 22.046875 -34.90625 C 20.578125 -33.675781 19.597656 -31.894531 19.109375 -29.5625 C 18.617188 -27.238281 18.554688 -24.914062 18.921875 -22.59375 C 19.285156 -20.269531 20.078125 -18.25 21.296875 -16.53125 C 22.523438 -14.820312 24.367188 -13.96875 26.828125 -13.96875 C 31.234375 -13.96875 36.554688 -15.25 42.796875 -17.8125 C 49.046875 -20.382812 55.84375 -23.753906 63.1875 -27.921875 C 70.539062 -32.085938 78.132812 -36.738281 85.96875 -41.875 C 93.8125 -47.019531 101.285156 -52.164062 108.390625 -57.3125 C 115.492188 -62.457031 122.046875 -67.359375 128.046875 -72.015625 C 134.046875 -76.671875 138.878906 -80.585938 142.546875 -83.765625 L 145.859375 -84.5 L 145.859375 -84.140625 L 146.96875 -82.296875 L 146.96875 -81.9375 C 142.800781 -77.519531 137.65625 -72.375 131.53125 -66.5 C 125.40625 -60.625 118.789062 -54.5 111.6875 -48.125 C 104.582031 -41.757812 97.171875 -35.453125 89.453125 -29.203125 C 81.742188 -22.960938 74.09375 -17.390625 66.5 -12.484375 C 58.90625 -7.585938 51.492188 -3.671875 44.265625 -0.734375 C 37.046875 2.203125 30.492188 3.550781 24.609375 3.3125 Z M 37.109375 -60.25 C 42.003906 -62.945312 46.472656 -66.128906 50.515625 -69.796875 C 54.554688 -73.472656 57.925781 -77.882812 60.625 -83.03125 L 60.625 -84.875 C 58.664062 -83.894531 56.519531 -82.421875 54.1875 -80.453125 C 51.863281 -78.492188 49.476562 -76.289062 47.03125 -73.84375 C 44.582031 -71.394531 42.375 -68.945312 40.40625 -66.5 C 38.445312 -64.050781 36.976562 -61.96875 36 -60.25 Z M 37.109375 -60.25 "/></g></g></g><g fill="#fefefe" fill-opacity="1"><g transform="translate(384.036377, 518.310404)"><g><path d="M 2.9375 -26.078125 C 2.9375 -38.816406 5.9375 -51.367188 11.9375 -63.734375 C 17.9375 -76.109375 25.648438 -87.5 35.078125 -97.90625 C 44.515625 -108.320312 55.109375 -117.382812 66.859375 -125.09375 C 78.617188 -132.8125 90.253906 -138.507812 101.765625 -142.1875 C 103.972656 -142.1875 106.789062 -141.878906 110.21875 -141.265625 C 113.644531 -140.648438 116.953125 -139.726562 120.140625 -138.5 C 123.328125 -137.28125 126.082031 -135.691406 128.40625 -133.734375 C 130.738281 -131.773438 131.90625 -129.203125 131.90625 -126.015625 C 131.90625 -124.304688 130.492188 -121.304688 127.671875 -117.015625 C 124.859375 -112.734375 121.613281 -108.382812 117.9375 -103.96875 C 114.257812 -99.5625 110.644531 -95.644531 107.09375 -92.21875 C 103.539062 -88.789062 100.910156 -87.078125 99.203125 -87.078125 C 95.773438 -87.078125 93.265625 -88.726562 91.671875 -92.03125 C 90.078125 -95.34375 89.28125 -98.34375 89.28125 -101.03125 C 89.28125 -102.257812 89.335938 -103.546875 89.453125 -104.890625 C 89.578125 -106.242188 89.765625 -107.53125 90.015625 -108.75 C 81.191406 -103.601562 73.226562 -98.335938 66.125 -92.953125 C 59.03125 -87.566406 52.722656 -81.75 47.203125 -75.5 C 41.691406 -69.257812 36.734375 -62.28125 32.328125 -54.5625 C 27.921875 -46.84375 23.878906 -38.207031 20.203125 -28.65625 C 19.710938 -27.4375 19.097656 -26.085938 18.359375 -24.609375 C 17.628906 -23.140625 17.265625 -21.671875 17.265625 -20.203125 C 17.265625 -18.734375 17.875 -17.507812 19.09375 -16.53125 C 20.320312 -15.550781 21.671875 -15.0625 23.140625 -15.0625 C 27.304688 -15.0625 33.25 -16.46875 40.96875 -19.28125 C 48.6875 -22.101562 57.320312 -25.78125 66.875 -30.3125 C 76.425781 -34.84375 86.40625 -39.863281 96.8125 -45.375 C 107.21875 -50.882812 117.257812 -56.332031 126.9375 -61.71875 C 136.613281 -67.113281 145.429688 -72.195312 153.390625 -76.96875 C 161.347656 -81.75 167.535156 -85.609375 171.953125 -88.546875 L 174.890625 -85.234375 C 172.191406 -82.546875 166.921875 -78.628906 159.078125 -73.484375 C 151.242188 -68.335938 142.179688 -62.640625 131.890625 -56.390625 C 121.609375 -50.148438 110.710938 -43.84375 99.203125 -37.46875 C 87.691406 -31.101562 76.789062 -25.285156 66.5 -20.015625 C 56.207031 -14.753906 47.203125 -10.410156 39.484375 -6.984375 C 31.773438 -3.554688 26.570312 -1.84375 23.875 -1.84375 C 20.9375 -1.84375 18.179688 -2.578125 15.609375 -4.046875 C 13.035156 -5.515625 10.832031 -7.410156 9 -9.734375 C 7.164062 -12.066406 5.695312 -14.703125 4.59375 -17.640625 C 3.488281 -20.578125 2.9375 -23.390625 2.9375 -26.078125 Z M 2.9375 -26.078125 "/></g></g></g><g fill="#fefefe" fill-opacity="1"><g transform="translate(529.897914, 518.310404)"><g><path d="M 25.71875 -18.375 C 27.1875 -18.863281 30.1875 -20.515625 34.71875 -23.328125 C 39.25 -26.148438 44.578125 -29.582031 50.703125 -33.625 C 56.828125 -37.664062 63.316406 -42.007812 70.171875 -46.65625 C 77.035156 -51.3125 83.40625 -55.535156 89.28125 -59.328125 C 95.15625 -63.128906 100.113281 -66.316406 104.15625 -68.890625 C 108.195312 -71.460938 110.585938 -72.75 111.328125 -72.75 C 112.546875 -72.75 113.644531 -72.867188 114.625 -73.109375 C 115.601562 -73.359375 116.335938 -72.992188 116.828125 -72.015625 C 116.335938 -70.785156 113.582031 -68.085938 108.5625 -63.921875 C 103.539062 -59.765625 97.414062 -54.929688 90.1875 -49.421875 C 82.96875 -43.910156 75.191406 -38.09375 66.859375 -31.96875 C 58.535156 -25.84375 50.695312 -20.207031 43.34375 -15.0625 C 36 -9.914062 29.691406 -5.6875 24.421875 -2.375 C 19.160156 0.925781 16.164062 2.578125 15.4375 2.578125 C 13.226562 2.578125 11.144531 1.960938 9.1875 0.734375 C 7.226562 -0.492188 5.515625 -2.085938 4.046875 -4.046875 C 2.578125 -6.003906 1.410156 -8.144531 0.546875 -10.46875 C -0.304688 -12.800781 -0.734375 -15.066406 -0.734375 -17.265625 C -0.734375 -21.429688 0.304688 -27.003906 2.390625 -33.984375 C 4.472656 -40.960938 6.984375 -48.1875 9.921875 -55.65625 C 12.859375 -63.132812 15.859375 -70.300781 18.921875 -77.15625 C 21.984375 -84.007812 24.492188 -89.519531 26.453125 -93.6875 C 27.191406 -95.15625 28.785156 -98.460938 31.234375 -103.609375 C 33.679688 -108.753906 36.3125 -114.140625 39.125 -119.765625 C 41.945312 -125.398438 44.640625 -130.421875 47.203125 -134.828125 C 49.773438 -139.242188 51.554688 -141.453125 52.546875 -141.453125 C 56.703125 -141.453125 60.617188 -140.039062 64.296875 -137.21875 C 67.972656 -134.40625 70.421875 -131.039062 71.640625 -127.125 C 70.421875 -124.914062 68.398438 -120.992188 65.578125 -115.359375 C 62.765625 -109.734375 59.703125 -103.179688 56.390625 -95.703125 C 53.085938 -88.234375 49.597656 -80.332031 45.921875 -72 C 42.253906 -63.675781 38.890625 -55.835938 35.828125 -48.484375 C 32.765625 -41.140625 30.3125 -34.710938 28.46875 -29.203125 C 26.632812 -23.691406 25.71875 -20.082031 25.71875 -18.375 Z M 84.875 -196.9375 C 85.851562 -196.9375 87.441406 -196.628906 89.640625 -196.015625 C 91.847656 -195.398438 94.050781 -194.601562 96.25 -193.625 C 98.457031 -192.644531 100.359375 -191.539062 101.953125 -190.3125 C 103.546875 -189.09375 104.34375 -187.75 104.34375 -186.28125 C 104.34375 -184.5625 103.421875 -182.289062 101.578125 -179.46875 C 99.742188 -176.65625 97.601562 -173.898438 95.15625 -171.203125 C 92.707031 -168.515625 90.195312 -166.191406 87.625 -164.234375 C 85.050781 -162.273438 83.03125 -161.296875 81.5625 -161.296875 C 78.863281 -161.296875 75.984375 -162.945312 72.921875 -166.25 C 69.867188 -169.5625 68.34375 -172.5625 68.34375 -175.25 C 68.34375 -175.988281 69.078125 -177.519531 70.546875 -179.84375 C 72.015625 -182.164062 73.664062 -184.613281 75.5 -187.1875 C 77.332031 -189.757812 79.164062 -192.023438 81 -193.984375 C 82.84375 -195.953125 84.132812 -196.9375 84.875 -196.9375 Z M 84.875 -196.9375 "/></g></g></g><g fill="#fefefe" fill-opacity="1"><g transform="translate(618.443549, 518.310404)"><g><path d="M 24.609375 3.3125 C 19.472656 3.0625 15.1875 1.773438 11.75 -0.546875 C 8.320312 -2.878906 5.691406 -5.820312 3.859375 -9.375 C 2.023438 -12.925781 0.800781 -16.78125 0.1875 -20.9375 C -0.425781 -25.101562 -0.488281 -29.269531 0 -33.4375 C 0.738281 -40.539062 3.003906 -48.5625 6.796875 -57.5 C 10.585938 -66.4375 15.238281 -74.820312 20.75 -82.65625 C 26.269531 -90.5 32.332031 -97.113281 38.9375 -102.5 C 45.550781 -107.894531 52.164062 -110.59375 58.78125 -110.59375 C 64.90625 -110.59375 70.050781 -108.019531 74.21875 -102.875 C 78.382812 -97.726562 80.46875 -92.21875 80.46875 -86.34375 C 80.46875 -81.195312 78.445312 -75.4375 74.40625 -69.0625 C 70.363281 -62.695312 65.582031 -56.820312 60.0625 -51.4375 C 54.550781 -46.050781 48.859375 -41.519531 42.984375 -37.84375 C 37.109375 -34.164062 32.332031 -32.328125 28.65625 -32.328125 C 27.4375 -32.328125 26.273438 -32.632812 25.171875 -33.25 C 24.066406 -33.863281 23.023438 -34.414062 22.046875 -34.90625 C 20.578125 -33.675781 19.597656 -31.894531 19.109375 -29.5625 C 18.617188 -27.238281 18.554688 -24.914062 18.921875 -22.59375 C 19.285156 -20.269531 20.078125 -18.25 21.296875 -16.53125 C 22.523438 -14.820312 24.367188 -13.96875 26.828125 -13.96875 C 31.234375 -13.96875 36.554688 -15.25 42.796875 -17.8125 C 49.046875 -20.382812 55.84375 -23.753906 63.1875 -27.921875 C 70.539062 -32.085938 78.132812 -36.738281 85.96875 -41.875 C 93.8125 -47.019531 101.285156 -52.164062 108.390625 -57.3125 C 115.492188 -62.457031 122.046875 -67.359375 128.046875 -72.015625 C 134.046875 -76.671875 138.878906 -80.585938 142.546875 -83.765625 L 145.859375 -84.5 L 145.859375 -84.140625 L 146.96875 -82.296875 L 146.96875 -81.9375 C 142.800781 -77.519531 137.65625 -72.375 131.53125 -66.5 C 125.40625 -60.625 118.789062 -54.5 111.6875 -48.125 C 104.582031 -41.757812 97.171875 -35.453125 89.453125 -29.203125 C 81.742188 -22.960938 74.09375 -17.390625 66.5 -12.484375 C 58.90625 -7.585938 51.492188 -3.671875 44.265625 -0.734375 C 37.046875 2.203125 30.492188 3.550781 24.609375 3.3125 Z M 37.109375 -60.25 C 42.003906 -62.945312 46.472656 -66.128906 50.515625 -69.796875 C 54.554688 -73.472656 57.925781 -77.882812 60.625 -83.03125 L 60.625 -84.875 C 58.664062 -83.894531 56.519531 -82.421875 54.1875 -80.453125 C 51.863281 -78.492188 49.476562 -76.289062 47.03125 -73.84375 C 44.582031 -71.394531 42.375 -68.945312 40.40625 -66.5 C 38.445312 -64.050781 36.976562 -61.96875 36 -60.25 Z M 37.109375 -60.25 "/></g></g></g><g fill="#000000" fill-opacity="1"><g transform="translate(77.393738, 517.124994)"><g><path d="M 239.1875 -199.5 C 239.1875 -182.601562 235.203125 -166.316406 227.234375 -150.640625 C 219.273438 -134.960938 208.804688 -121.179688 195.828125 -109.296875 C 182.847656 -97.421875 168.210938 -87.929688 151.921875 -80.828125 C 135.628906 -73.722656 119.28125 -70.171875 102.875 -70.171875 C 98.46875 -70.171875 94.671875 -70.84375 91.484375 -72.1875 C 88.296875 -73.539062 85.476562 -75.378906 83.03125 -77.703125 C 80.582031 -80.035156 78.316406 -82.789062 76.234375 -85.96875 C 74.148438 -89.15625 72.128906 -92.460938 70.171875 -95.890625 C 67.972656 -92.953125 65.097656 -87.257812 61.546875 -78.8125 C 57.992188 -70.363281 54.070312 -60.6875 49.78125 -49.78125 C 45.5 -38.882812 41.09375 -27.554688 36.5625 -15.796875 C 32.03125 -4.035156 27.742188 6.800781 23.703125 16.71875 C 19.660156 26.632812 16.046875 34.773438 12.859375 41.140625 C 9.671875 47.515625 7.34375 50.703125 5.875 50.703125 C 4.40625 50.703125 2.566406 50.148438 0.359375 49.046875 C -1.835938 47.941406 -3.851562 46.53125 -5.6875 44.8125 C -7.53125 43.101562 -9.125 41.269531 -10.46875 39.3125 C -11.8125 37.351562 -12.484375 35.515625 -12.484375 33.796875 C -12.484375 31.597656 -10.953125 26.332031 -7.890625 18 C -4.835938 9.675781 -0.800781 -0.609375 4.21875 -12.859375 C 9.238281 -25.109375 14.875 -38.703125 21.125 -53.640625 C 27.375 -68.578125 33.863281 -83.757812 40.59375 -99.1875 C 47.332031 -114.625 53.882812 -129.691406 60.25 -144.390625 C 66.625 -159.085938 72.320312 -172.3125 77.34375 -184.0625 C 82.363281 -195.820312 86.40625 -205.4375 89.46875 -212.90625 C 92.53125 -220.382812 94.0625 -224.613281 94.0625 -225.59375 C 86.957031 -222.15625 80.523438 -218.597656 74.765625 -214.921875 C 69.015625 -211.253906 63.6875 -207.273438 58.78125 -202.984375 C 53.882812 -198.703125 49.414062 -193.863281 45.375 -188.46875 C 41.332031 -183.082031 37.351562 -176.960938 33.4375 -170.109375 C 32.945312 -169.617188 32.332031 -168.820312 31.59375 -167.71875 C 30.863281 -166.613281 30.007812 -166.0625 29.03125 -166.0625 C 27.0625 -166.0625 25.28125 -166.859375 23.6875 -168.453125 C 22.101562 -170.046875 20.695312 -171.941406 19.46875 -174.140625 C 18.25 -176.347656 17.269531 -178.613281 16.53125 -180.9375 C 15.800781 -183.269531 15.4375 -185.171875 15.4375 -186.640625 C 15.4375 -191.535156 17.148438 -196.3125 20.578125 -200.96875 C 27.429688 -210.519531 36.488281 -219.644531 47.75 -228.34375 C 59.019531 -237.039062 71.144531 -244.632812 84.125 -251.125 C 97.113281 -257.613281 110.40625 -262.816406 124 -266.734375 C 137.59375 -270.648438 150.269531 -272.609375 162.03125 -272.609375 C 171.582031 -272.609375 181.007812 -270.707031 190.3125 -266.90625 C 199.625 -263.113281 207.890625 -257.910156 215.109375 -251.296875 C 222.335938 -244.691406 228.15625 -236.976562 232.5625 -228.15625 C 236.976562 -219.34375 239.1875 -209.789062 239.1875 -199.5 Z M 164.234375 -248.734375 C 161.046875 -248.734375 157.613281 -248.488281 153.9375 -248 C 150.269531 -247.507812 146.71875 -246.710938 143.28125 -245.609375 C 139.851562 -244.503906 136.789062 -242.847656 134.09375 -240.640625 C 131.40625 -238.441406 129.445312 -235.75 128.21875 -232.5625 C 127.238281 -230.113281 125.34375 -225.457031 122.53125 -218.59375 C 119.71875 -211.738281 116.410156 -203.898438 112.609375 -195.078125 C 108.816406 -186.265625 104.835938 -176.957031 100.671875 -167.15625 C 96.503906 -157.363281 92.707031 -148.300781 89.28125 -139.96875 C 85.851562 -131.644531 82.972656 -124.726562 80.640625 -119.21875 C 78.316406 -113.707031 77.15625 -110.707031 77.15625 -110.21875 C 77.15625 -108.257812 77.519531 -106.054688 78.25 -103.609375 C 78.988281 -101.160156 80.09375 -98.957031 81.5625 -97 C 83.03125 -95.039062 84.742188 -93.382812 86.703125 -92.03125 C 88.660156 -90.6875 90.742188 -90.015625 92.953125 -90.015625 C 101.285156 -90.015625 110.285156 -91.546875 119.953125 -94.609375 C 129.628906 -97.671875 139.304688 -101.957031 148.984375 -107.46875 C 158.660156 -112.976562 168.03125 -119.34375 177.09375 -126.5625 C 186.15625 -133.789062 194.175781 -141.566406 201.15625 -149.890625 C 208.132812 -158.222656 213.707031 -166.859375 217.875 -175.796875 C 222.039062 -184.742188 224.125 -193.625 224.125 -202.4375 C 224.125 -211.257812 222.40625 -218.671875 218.96875 -224.671875 C 215.539062 -230.671875 211.070312 -235.445312 205.5625 -239 C 200.050781 -242.550781 193.679688 -245.0625 186.453125 -246.53125 C 179.234375 -248 171.828125 -248.734375 164.234375 -248.734375 Z M 164.234375 -248.734375 "/></g></g></g><g fill="#000000" fill-opacity="1"><g transform="translate(263.670171, 517.124994)"><g><path d="M 24.609375 3.3125 C 19.472656 3.0625 15.1875 1.773438 11.75 -0.546875 C 8.320312 -2.878906 5.691406 -5.820312 3.859375 -9.375 C 2.023438 -12.925781 0.800781 -16.78125 0.1875 -20.9375 C -0.425781 -25.101562 -0.488281 -29.269531 0 -33.4375 C 0.738281 -40.539062 3.003906 -48.5625 6.796875 -57.5 C 10.585938 -66.4375 15.238281 -74.820312 20.75 -82.65625 C 26.269531 -90.5 32.332031 -97.113281 38.9375 -102.5 C 45.550781 -107.894531 52.164062 -110.59375 58.78125 -110.59375 C 64.90625 -110.59375 70.050781 -108.019531 74.21875 -102.875 C 78.382812 -97.726562 80.46875 -92.21875 80.46875 -86.34375 C 80.46875 -81.195312 78.445312 -75.4375 74.40625 -69.0625 C 70.363281 -62.695312 65.582031 -56.820312 60.0625 -51.4375 C 54.550781 -46.050781 48.859375 -41.519531 42.984375 -37.84375 C 37.109375 -34.164062 32.332031 -32.328125 28.65625 -32.328125 C 27.4375 -32.328125 26.273438 -32.632812 25.171875 -33.25 C 24.066406 -33.863281 23.023438 -34.414062 22.046875 -34.90625 C 20.578125 -33.675781 19.597656 -31.894531 19.109375 -29.5625 C 18.617188 -27.238281 18.554688 -24.914062 18.921875 -22.59375 C 19.285156 -20.269531 20.078125 -18.25 21.296875 -16.53125 C 22.523438 -14.820312 24.367188 -13.96875 26.828125 -13.96875 C 31.234375 -13.96875 36.554688 -15.25 42.796875 -17.8125 C 49.046875 -20.382812 55.84375 -23.753906 63.1875 -27.921875 C 70.539062 -32.085938 78.132812 -36.738281 85.96875 -41.875 C 93.8125 -47.019531 101.285156 -52.164062 108.390625 -57.3125 C 115.492188 -62.457031 122.046875 -67.359375 128.046875 -72.015625 C 134.046875 -76.671875 138.878906 -80.585938 142.546875 -83.765625 L 145.859375 -84.5 L 145.859375 -84.140625 L 146.96875 -82.296875 L 146.96875 -81.9375 C 142.800781 -77.519531 137.65625 -72.375 131.53125 -66.5 C 125.40625 -60.625 118.789062 -54.5 111.6875 -48.125 C 104.582031 -41.757812 97.171875 -35.453125 89.453125 -29.203125 C 81.742188 -22.960938 74.09375 -17.390625 66.5 -12.484375 C 58.90625 -7.585938 51.492188 -3.671875 44.265625 -0.734375 C 37.046875 2.203125 30.492188 3.550781 24.609375 3.3125 Z M 37.109375 -60.25 C 42.003906 -62.945312 46.472656 -66.128906 50.515625 -69.796875 C 54.554688 -73.472656 57.925781 -77.882812 60.625 -83.03125 L 60.625 -84.875 C 58.664062 -83.894531 56.519531 -82.421875 54.1875 -80.453125 C 51.863281 -78.492188 49.476562 -76.289062 47.03125 -73.84375 C 44.582031 -71.394531 42.375 -68.945312 40.40625 -66.5 C 38.445312 -64.050781 36.976562 -61.96875 36 -60.25 Z M 37.109375 -60.25 "/></g></g></g><g fill="#000000" fill-opacity="1"><g transform="translate(382.343429, 517.124994)"><g><path d="M 2.9375 -26.078125 C 2.9375 -38.816406 5.9375 -51.367188 11.9375 -63.734375 C 17.9375 -76.109375 25.648438 -87.5 35.078125 -97.90625 C 44.515625 -108.320312 55.109375 -117.382812 66.859375 -125.09375 C 78.617188 -132.8125 90.253906 -138.507812 101.765625 -142.1875 C 103.972656 -142.1875 106.789062 -141.878906 110.21875 -141.265625 C 113.644531 -140.648438 116.953125 -139.726562 120.140625 -138.5 C 123.328125 -137.28125 126.082031 -135.691406 128.40625 -133.734375 C 130.738281 -131.773438 131.90625 -129.203125 131.90625 -126.015625 C 131.90625 -124.304688 130.492188 -121.304688 127.671875 -117.015625 C 124.859375 -112.734375 121.613281 -108.382812 117.9375 -103.96875 C 114.257812 -99.5625 110.644531 -95.644531 107.09375 -92.21875 C 103.539062 -88.789062 100.910156 -87.078125 99.203125 -87.078125 C 95.773438 -87.078125 93.265625 -88.726562 91.671875 -92.03125 C 90.078125 -95.34375 89.28125 -98.34375 89.28125 -101.03125 C 89.28125 -102.257812 89.335938 -103.546875 89.453125 -104.890625 C 89.578125 -106.242188 89.765625 -107.53125 90.015625 -108.75 C 81.191406 -103.601562 73.226562 -98.335938 66.125 -92.953125 C 59.03125 -87.566406 52.722656 -81.75 47.203125 -75.5 C 41.691406 -69.257812 36.734375 -62.28125 32.328125 -54.5625 C 27.921875 -46.84375 23.878906 -38.207031 20.203125 -28.65625 C 19.710938 -27.4375 19.097656 -26.085938 18.359375 -24.609375 C 17.628906 -23.140625 17.265625 -21.671875 17.265625 -20.203125 C 17.265625 -18.734375 17.875 -17.507812 19.09375 -16.53125 C 20.320312 -15.550781 21.671875 -15.0625 23.140625 -15.0625 C 27.304688 -15.0625 33.25 -16.46875 40.96875 -19.28125 C 48.6875 -22.101562 57.320312 -25.78125 66.875 -30.3125 C 76.425781 -34.84375 86.40625 -39.863281 96.8125 -45.375 C 107.21875 -50.882812 117.257812 -56.332031 126.9375 -61.71875 C 136.613281 -67.113281 145.429688 -72.195312 153.390625 -76.96875 C 161.347656 -81.75 167.535156 -85.609375 171.953125 -88.546875 L 174.890625 -85.234375 C 172.191406 -82.546875 166.921875 -78.628906 159.078125 -73.484375 C 151.242188 -68.335938 142.179688 -62.640625 131.890625 -56.390625 C 121.609375 -50.148438 110.710938 -43.84375 99.203125 -37.46875 C 87.691406 -31.101562 76.789062 -25.285156 66.5 -20.015625 C 56.207031 -14.753906 47.203125 -10.410156 39.484375 -6.984375 C 31.773438 -3.554688 26.570312 -1.84375 23.875 -1.84375 C 20.9375 -1.84375 18.179688 -2.578125 15.609375 -4.046875 C 13.035156 -5.515625 10.832031 -7.410156 9 -9.734375 C 7.164062 -12.066406 5.695312 -14.703125 4.59375 -17.640625 C 3.488281 -20.578125 2.9375 -23.390625 2.9375 -26.078125 Z M 2.9375 -26.078125 "/></g></g></g><g fill="#000000" fill-opacity="1"><g transform="translate(528.204966, 517.124994)"><g><path d="M 25.71875 -18.375 C 27.1875 -18.863281 30.1875 -20.515625 34.71875 -23.328125 C 39.25 -26.148438 44.578125 -29.582031 50.703125 -33.625 C 56.828125 -37.664062 63.316406 -42.007812 70.171875 -46.65625 C 77.035156 -51.3125 83.40625 -55.535156 89.28125 -59.328125 C 95.15625 -63.128906 100.113281 -66.316406 104.15625 -68.890625 C 108.195312 -71.460938 110.585938 -72.75 111.328125 -72.75 C 112.546875 -72.75 113.644531 -72.867188 114.625 -73.109375 C 115.601562 -73.359375 116.335938 -72.992188 116.828125 -72.015625 C 116.335938 -70.785156 113.582031 -68.085938 108.5625 -63.921875 C 103.539062 -59.765625 97.414062 -54.929688 90.1875 -49.421875 C 82.96875 -43.910156 75.191406 -38.09375 66.859375 -31.96875 C 58.535156 -25.84375 50.695312 -20.207031 43.34375 -15.0625 C 36 -9.914062 29.691406 -5.6875 24.421875 -2.375 C 19.160156 0.925781 16.164062 2.578125 15.4375 2.578125 C 13.226562 2.578125 11.144531 1.960938 9.1875 0.734375 C 7.226562 -0.492188 5.515625 -2.085938 4.046875 -4.046875 C 2.578125 -6.003906 1.410156 -8.144531 0.546875 -10.46875 C -0.304688 -12.800781 -0.734375 -15.066406 -0.734375 -17.265625 C -0.734375 -21.429688 0.304688 -27.003906 2.390625 -33.984375 C 4.472656 -40.960938 6.984375 -48.1875 9.921875 -55.65625 C 12.859375 -63.132812 15.859375 -70.300781 18.921875 -77.15625 C 21.984375 -84.007812 24.492188 -89.519531 26.453125 -93.6875 C 27.191406 -95.15625 28.785156 -98.460938 31.234375 -103.609375 C 33.679688 -108.753906 36.3125 -114.140625 39.125 -119.765625 C 41.945312 -125.398438 44.640625 -130.421875 47.203125 -134.828125 C 49.773438 -139.242188 51.554688 -141.453125 52.546875 -141.453125 C 56.703125 -141.453125 60.617188 -140.039062 64.296875 -137.21875 C 67.972656 -134.40625 70.421875 -131.039062 71.640625 -127.125 C 70.421875 -124.914062 68.398438 -120.992188 65.578125 -115.359375 C 62.765625 -109.734375 59.703125 -103.179688 56.390625 -95.703125 C 53.085938 -88.234375 49.597656 -80.332031 45.921875 -72 C 42.253906 -63.675781 38.890625 -55.835938 35.828125 -48.484375 C 32.765625 -41.140625 30.3125 -34.710938 28.46875 -29.203125 C 26.632812 -23.691406 25.71875 -20.082031 25.71875 -18.375 Z M 84.875 -196.9375 C 85.851562 -196.9375 87.441406 -196.628906 89.640625 -196.015625 C 91.847656 -195.398438 94.050781 -194.601562 96.25 -193.625 C 98.457031 -192.644531 100.359375 -191.539062 101.953125 -190.3125 C 103.546875 -189.09375 104.34375 -187.75 104.34375 -186.28125 C 104.34375 -184.5625 103.421875 -182.289062 101.578125 -179.46875 C 99.742188 -176.65625 97.601562 -173.898438 95.15625 -171.203125 C 92.707031 -168.515625 90.195312 -166.191406 87.625 -164.234375 C 85.050781 -162.273438 83.03125 -161.296875 81.5625 -161.296875 C 78.863281 -161.296875 75.984375 -162.945312 72.921875 -166.25 C 69.867188 -169.5625 68.34375 -172.5625 68.34375 -175.25 C 68.34375 -175.988281 69.078125 -177.519531 70.546875 -179.84375 C 72.015625 -182.164062 73.664062 -184.613281 75.5 -187.1875 C 77.332031 -189.757812 79.164062 -192.023438 81 -193.984375 C 82.84375 -195.953125 84.132812 -196.9375 84.875 -196.9375 Z M 84.875 -196.9375 "/></g></g></g><g fill="#000000" fill-opacity="1"><g transform="translate(616.750601, 517.124994)"><g><path d="M 24.609375 3.3125 C 19.472656 3.0625 15.1875 1.773438 11.75 -0.546875 C 8.320312 -2.878906 5.691406 -5.820312 3.859375 -9.375 C 2.023438 -12.925781 0.800781 -16.78125 0.1875 -20.9375 C -0.425781 -25.101562 -0.488281 -29.269531 0 -33.4375 C 0.738281 -40.539062 3.003906 -48.5625 6.796875 -57.5 C 10.585938 -66.4375 15.238281 -74.820312 20.75 -82.65625 C 26.269531 -90.5 32.332031 -97.113281 38.9375 -102.5 C 45.550781 -107.894531 52.164062 -110.59375 58.78125 -110.59375 C 64.90625 -110.59375 70.050781 -108.019531 74.21875 -102.875 C 78.382812 -97.726562 80.46875 -92.21875 80.46875 -86.34375 C 80.46875 -81.195312 78.445312 -75.4375 74.40625 -69.0625 C 70.363281 -62.695312 65.582031 -56.820312 60.0625 -51.4375 C 54.550781 -46.050781 48.859375 -41.519531 42.984375 -37.84375 C 37.109375 -34.164062 32.332031 -32.328125 28.65625 -32.328125 C 27.4375 -32.328125 26.273438 -32.632812 25.171875 -33.25 C 24.066406 -33.863281 23.023438 -34.414062 22.046875 -34.90625 C 20.578125 -33.675781 19.597656 -31.894531 19.109375 -29.5625 C 18.617188 -27.238281 18.554688 -24.914062 18.921875 -22.59375 C 19.285156 -20.269531 20.078125 -18.25 21.296875 -16.53125 C 22.523438 -14.820312 24.367188 -13.96875 26.828125 -13.96875 C 31.234375 -13.96875 36.554688 -15.25 42.796875 -17.8125 C 49.046875 -20.382812 55.84375 -23.753906 63.1875 -27.921875 C 70.539062 -32.085938 78.132812 -36.738281 85.96875 -41.875 C 93.8125 -47.019531 101.285156 -52.164062 108.390625 -57.3125 C 115.492188 -62.457031 122.046875 -67.359375 128.046875 -72.015625 C 134.046875 -76.671875 138.878906 -80.585938 142.546875 -83.765625 L 145.859375 -84.5 L 145.859375 -84.140625 L 146.96875 -82.296875 L 146.96875 -81.9375 C 142.800781 -77.519531 137.65625 -72.375 131.53125 -66.5 C 125.40625 -60.625 118.789062 -54.5 111.6875 -48.125 C 104.582031 -41.757812 97.171875 -35.453125 89.453125 -29.203125 C 81.742188 -22.960938 74.09375 -17.390625 66.5 -12.484375 C 58.90625 -7.585938 51.492188 -3.671875 44.265625 -0.734375 C 37.046875 2.203125 30.492188 3.550781 24.609375 3.3125 Z M 37.109375 -60.25 C 42.003906 -62.945312 46.472656 -66.128906 50.515625 -69.796875 C 54.554688 -73.472656 57.925781 -77.882812 60.625 -83.03125 L 60.625 -84.875 C 58.664062 -83.894531 56.519531 -82.421875 54.1875 -80.453125 C 51.863281 -78.492188 49.476562 -76.289062 47.03125 -73.84375 C 44.582031 -71.394531 42.375 -68.945312 40.40625 -66.5 C 38.445312 -64.050781 36.976562 -61.96875 36 -60.25 Z M 37.109375 -60.25 "/></g></g></g><g clip-path="url(#77b90a257a)"><g clip-path="url(#c7a64d2c90)"><g clip-path="url(#a3f87b4648)"><g clip-path="url(#9a8690c8e5)"><path fill="#000000" d="M 558.3125 186.175781 C 558.5 186.929688 558.039062 187.699219 557.285156 187.890625 C 553.878906 188.742188 551.003906 190.867188 549.203125 193.871094 C 547.398438 196.878906 546.878906 200.410156 547.730469 203.8125 L 567.136719 281.394531 C 567.273438 281.941406 567.074219 282.515625 566.625 282.863281 C 566.472656 282.980469 566.292969 283.0625 566.109375 283.105469 C 565.765625 283.191406 565.398438 283.148438 565.078125 282.972656 L 530.324219 263.484375 L 508.839844 297.039062 C 508.535156 297.511719 507.976562 297.757812 507.425781 297.671875 C 506.863281 297.578125 506.417969 297.164062 506.28125 296.617188 L 486.335938 216.886719 C 484.496094 209.539062 488.976562 202.066406 496.316406 200.226562 L 556.597656 185.148438 C 557.351562 184.960938 558.125 185.421875 558.3125 186.175781 Z M 558.3125 186.175781 " fill-opacity="1" fill-rule="nonzero"/></g></g></g></g></svg>